<svg class="diagram-root" style="background: #f5f6f6" xmlns="http://www.w3.org/2000/svg" xmlns:xlink="http://www.w3.org/1999/xlink"><style>.diagram-root { font-family: "Helvetica Neue", sans-serif; font-size: 12px; } .t { overflow: visible; } .t-bg { y: 40; fill: #fff;   } .th { fill: #005aa0;   } .tht { fill: #fff; font-size: 14px;  } .tf { fill: #323c46; overflow: visible; } .tf.pk { fill: #005aa0; font-weight: bold; } .tf.fk { font-weight: bold; } .ty { fill: #adb1b5; font-weight: normal; text-anchor: end; } .r { fill: transparent; stroke: #c3c3c3; stroke-width: 1; } .l { stroke: 1; } .i { fill: #c2c7ce; stroke: #c2c7ce; } .i.ix { fill: #afb3b6; stroke: #000; } .fa { fill: transparent; overflow: visible; } .fa .bg.hover { fill: #f7f7f7; } .c { cy: 12; r: 4; stroke: #d2d2dc; fill: #d2d2dc; } .hr { fill: transparent; stroke: #323c46; stroke-opacity: 0.035; stroke-width: 13; } .dc { stroke: #fa5a3c; fill: #fa5a3c; } .x { stroke: white; stroke-width: 1; } .hl .th { fill: #1b9bff; } .hl .tht {  } .fhl .bg { fill: #e7f4ff; } .fhls .bg {  } .r.hl { stroke: #1b9bff; } .dim { opacity: 0.25; }</style><g class="drawing-wrapper" transform="translate(-22, 11) scale(1,1)"><g class="rs"><path d="M 308 504 m -1, 0 a 1,1 0 1,0 2,0 a 1,1 0 1,0 -2,0 M 308 504 m -0.5, 0 a 0.5,0.5 0 1,0 1,0 a 0.5,0.5 0 1,0 -1,0  M308 504 L308 504 296 504 M 308 510 m -1, 0 a 1,1 0 1,0 2,0 a 1,1 0 1,0 -2,0 M 308 510 m -0.5, 0 a 0.5,0.5 0 1,0 1,0 a 0.5,0.5 0 1,0 -1,0  M308 510 L308 510 301 504 308 498 M 308 498 m -1, 0 a 1,1 0 1,0 2,0 a 1,1 0 1,0 -2,0 M 308 498 m -0.5, 0 a 0.5,0.5 0 1,0 1,0 a 0.5,0.5 0 1,0 -1,0  M296 504 Q 275 504, 254 331 T 212 158 M 200 158 m -1, 0 a 1,1 0 1,0 2,0 a 1,1 0 1,0 -2,0 M 200 158 m -0.5, 0 a 0.5,0.5 0 1,0 1,0 a 0.5,0.5 0 1,0 -1,0  M200 158 L200 158 212 158 M206 164 L206 164 206 152" id="h3034974808" class="r"></path><path d="M 368 126 m -1, 0 a 1,1 0 1,0 2,0 a 1,1 0 1,0 -2,0 M 368 126 m -0.5, 0 a 0.5,0.5 0 1,0 1,0 a 0.5,0.5 0 1,0 -1,0  M368 126 L368 126 356 126 M362 132 L362 132 362 120 M356 126 C 251.6 126, 272 292, 322 292 M 334 292 m -1, 0 a 1,1 0 1,0 2,0 a 1,1 0 1,0 -2,0 M 334 292 m -0.5, 0 a 0.5,0.5 0 1,0 1,0 a 0.5,0.5 0 1,0 -1,0  M334 292 L334 292 322 292 M 334 298 m -1, 0 a 1,1 0 1,0 2,0 a 1,1 0 1,0 -2,0 M 334 298 m -0.5, 0 a 0.5,0.5 0 1,0 1,0 a 0.5,0.5 0 1,0 -1,0  M334 298 L334 298 327 292 334 286 M 334 286 m -1, 0 a 1,1 0 1,0 2,0 a 1,1 0 1,0 -2,0 M 334 286 m -0.5, 0 a 0.5,0.5 0 1,0 1,0 a 0.5,0.5 0 1,0 -1,0 " id="h3750860806" class="r"></path><path d="M 727 184 m -1, 0 a 1,1 0 1,0 2,0 a 1,1 0 1,0 -2,0 M 727 184 m -0.5, 0 a 0.5,0.5 0 1,0 1,0 a 0.5,0.5 0 1,0 -1,0  M727 184 L727 184 715 184 M 727 190 m -1, 0 a 1,1 0 1,0 2,0 a 1,1 0 1,0 -2,0 M 727 190 m -0.5, 0 a 0.5,0.5 0 1,0 1,0 a 0.5,0.5 0 1,0 -1,0  M727 190 L727 190 720 184 727 178 M 727 178 m -1, 0 a 1,1 0 1,0 2,0 a 1,1 0 1,0 -2,0 M 727 178 m -0.5, 0 a 0.5,0.5 0 1,0 1,0 a 0.5,0.5 0 1,0 -1,0  M715 184 Q 658.25 184, 601.5 331.5 T 488 479 M 476 479 m -1, 0 a 1,1 0 1,0 2,0 a 1,1 0 1,0 -2,0 M 476 479 m -0.5, 0 a 0.5,0.5 0 1,0 1,0 a 0.5,0.5 0 1,0 -1,0  M476 479 L476 479 488 479 M482 485 L482 485 482 473" id="h3137675399" class="r"></path><path d="M 727 209 m -1, 0 a 1,1 0 1,0 2,0 a 1,1 0 1,0 -2,0 M 727 209 m -0.5, 0 a 0.5,0.5 0 1,0 1,0 a 0.5,0.5 0 1,0 -1,0  M727 209 L727 209 715 209 M721 215 L721 215 721 203 M715 209 Q 673.75 209, 632.5 142.5 T 550 76 M 538 76 m -1, 0 a 1,1 0 1,0 2,0 a 1,1 0 1,0 -2,0 M 538 76 m -0.5, 0 a 0.5,0.5 0 1,0 1,0 a 0.5,0.5 0 1,0 -1,0  M538 76 L538 76 550 76 M 538 82 m -1, 0 a 1,1 0 1,0 2,0 a 1,1 0 1,0 -2,0 M 538 82 m -0.5, 0 a 0.5,0.5 0 1,0 1,0 a 0.5,0.5 0 1,0 -1,0  M538 82 L538 82 545 76 538 70 M 538 70 m -1, 0 a 1,1 0 1,0 2,0 a 1,1 0 1,0 -2,0 M 538 70 m -0.5, 0 a 0.5,0.5 0 1,0 1,0 a 0.5,0.5 0 1,0 -1,0 " id="h2296224473" class="r"></path></g><g class="hrs"></g><g class="ts"><svg width="168" height="100" x="308" y="422" id="h198306241" class="t"><rect height="40" width="168" class="th"></rect><text x="13" y="25" class="tht">credit_card</text><rect height="60" width="168" class="t-bg" y="40"></rect><text x="13" y="61" class="tf pk">card<tspan x="155" class="ty">VARCHAR(20)</tspan></text><path d="M7,14A2,2 0 0,1 5,12A2,2 0 0,1 7,10A2,2 0 0,1 9,12A2,2 0 0,1 7,14M12.65,10C11.83,7.67 9.61,6 7, 6A6, 6 0 0, 0 1, 12A6, 6 0 0, 0 7, 18C9.61, 18 11.83, 16.33 12.65, 14H17V18H21V14H23V10H12.65Z" class="i pk" transform="translate(57, 48) scale(0.65)"></path><text x="13" y="86" class="tf fk">cardholder_id<tspan x="155" class="ty">INT</tspan></text></svg><svg width="170" height="125" x="368" y="19" id="h1481749269" class="t"><rect height="40" width="170" class="th"></rect><text x="13" y="25" class="tht">merchant</text><rect height="85" width="170" class="t-bg" y="40"></rect><text x="13" y="61" class="tf pk">id<tspan x="157" class="ty">INT</tspan></text><path d="M7,14A2,2 0 0,1 5,12A2,2 0 0,1 7,10A2,2 0 0,1 9,12A2,2 0 0,1 7,14M12.65,10C11.83,7.67 9.61,6 7, 6A6, 6 0 0, 0 1, 12A6, 6 0 0, 0 7, 18C9.61, 18 11.83, 16.33 12.65, 14H17V18H21V14H23V10H12.65Z" class="i pk" transform="translate(118, 48) scale(0.65)"></path><text x="13" y="86" class="tf">name<tspan x="157" class="ty">VARCHAR(50)</tspan></text><text x="13" y="111" class="tf fk">merchant_category<tspan x="157" class="ty">INT</tspan></text></svg><svg width="156" height="100" x="334" y="235" id="h1670232039" class="t"><rect height="40" width="156" class="th"></rect><text x="13" y="25" class="tht">merchant_category</text><rect height="60" width="156" class="t-bg" y="40"></rect><text x="13" y="61" class="tf pk">id<tspan x="143" class="ty">INT</tspan></text><path d="M7,14A2,2 0 0,1 5,12A2,2 0 0,1 7,10A2,2 0 0,1 9,12A2,2 0 0,1 7,14M12.65,10C11.83,7.67 9.61,6 7, 6A6, 6 0 0, 0 1, 12A6, 6 0 0, 0 7, 18C9.61, 18 11.83, 16.33 12.65, 14H17V18H21V14H23V10H12.65Z" class="i pk" transform="translate(104, 48) scale(0.65)"></path><text x="13" y="86" class="tf">name<tspan x="143" class="ty">VARCHAR(20)</tspan></text></svg><svg width="148" height="175" x="727" y="52" id="h3007999074" class="t"><rect height="40" width="148" class="th"></rect><text x="13" y="25" class="tht">transaction</text><rect height="135" width="148" class="t-bg" y="40"></rect><text x="13" y="61" class="tf pk">id<tspan x="135" class="ty">INT</tspan></text><path d="M7,14A2,2 0 0,1 5,12A2,2 0 0,1 7,10A2,2 0 0,1 9,12A2,2 0 0,1 7,14M12.65,10C11.83,7.67 9.61,6 7, 6A6, 6 0 0, 0 1, 12A6, 6 0 0, 0 7, 18C9.61, 18 11.83, 16.33 12.65, 14H17V18H21V14H23V10H12.65Z" class="i pk" transform="translate(96, 48) scale(0.65)"></path><text x="13" y="86" class="tf">date<tspan x="135" class="ty">TIMESTAMP</tspan></text><text x="13" y="111" class="tf">amount<tspan x="135" class="ty">FLOAT</tspan></text><text x="13" y="136" class="tf fk">card<tspan x="135" class="ty">VARCHAR(20)</tspan></text><text x="13" y="161" class="tf fk">id_merchant<tspan x="135" class="ty">INT</tspan></text></svg><svg width="156" height="100" x="44" y="101" id="h99212310" class="t"><rect height="40" width="156" class="th"></rect><text x="13" y="25" class="tht">card_holder</text><rect height="60" width="156" class="t-bg" y="40"></rect><text x="13" y="61" class="tf pk">id<tspan x="143" class="ty">INT</tspan></text><path d="M7,14A2,2 0 0,1 5,12A2,2 0 0,1 7,10A2,2 0 0,1 9,12A2,2 0 0,1 7,14M12.65,10C11.83,7.67 9.61,6 7, 6A6, 6 0 0, 0 1, 12A6, 6 0 0, 0 7, 18C9.61, 18 11.83, 16.33 12.65, 14H17V18H21V14H23V10H12.65Z" class="i pk" transform="translate(104, 48) scale(0.65)"></path><text x="13" y="86" class="tf">name<tspan x="143" class="ty">VARCHAR(50)</tspan></text></svg></g></g><text class="qdbd-link" x="10" y="20">www.quickdatabasediagrams.com</text></svg>